<svg width="148" height="148" viewBox="0 0 148 148" fill="none" xmlns="http://www.w3.org/2000/svg">
<path fill-rule="evenodd" clip-rule="evenodd" d="M37 0C26.7827 0 18.5 8.28273 18.5 18.5C8.28273 18.5 0 26.7827 4.85196e-06 37L0 74L18.5 92.5H2.42598e-06L4.4911e-05 111C6.83748e-05 121.217 8.28281 129.5 18.5001 129.5C18.5 139.717 26.7827 148 37 148H74L92.5 129.5V148L111 148C121.217 148 129.5 139.717 129.5 129.5C139.717 129.5 148 121.217 148 111V74L129.5 55.5H148L148 37C148 26.7827 139.717 18.5 129.5 18.5C129.5 8.28273 121.217 0 111 0H74L55.5 18.5V0H37ZM55.5 18.5L27.75 45.9417V55.5H46.25L83.25 18.5H111H129.5L129.5 55.5L102.058 27.75H92.5V46.25L129.5 83.25V111V129.5H92.5L120.25 102.058V92.5H101.75L64.75 129.5H37H18.5001L18.5 92.5L45.9417 120.25L55.5 120.25L55.5 101.75L18.5 64.75L18.5 37L18.5 18.5H55.5ZM18.5 64.75L18.5 92.5L18.5 74L18.5 64.75Z" fill="black"/>
</svg>
