<svg width="648" height="148" viewBox="0 0 648 148" fill="none" xmlns="http://www.w3.org/2000/svg">
<path d="M235.927 118.484V46.6856H207.612V30H284.72V46.6856H256.405V118.484H235.927Z" fill="white"/>
<path d="M295.738 118.484V30H334.039C341.96 30 348.786 31.3062 354.517 33.9186C360.247 36.4467 364.671 40.1125 367.789 44.9159C370.907 49.7194 372.466 55.4498 372.466 62.1071C372.466 68.6803 370.907 74.3685 367.789 79.172C364.671 83.8911 360.247 87.5148 354.517 90.0429C348.786 92.571 341.96 93.8351 334.039 93.8351H307.114L316.216 84.8602V118.484H295.738ZM351.989 118.484L329.867 86.3771H351.736L374.11 118.484H351.989ZM316.216 87.1356L307.114 77.5287H332.901C339.222 77.5287 343.941 76.1804 347.059 73.4837C350.177 70.7028 351.736 66.9106 351.736 62.1071C351.736 57.2194 350.177 53.4273 347.059 50.7306C343.941 48.0339 339.222 46.6856 332.901 46.6856H307.114L316.216 36.9523V87.1356Z" fill="white"/>
<path d="M407.525 65.6465H450.124V81.5737H407.525V65.6465ZM409.042 102.051H457.203V118.484H388.691V30H455.56V46.4328H409.042V102.051Z" fill="white"/>
<path d="M473.496 118.484V30H511.797C519.719 30 526.545 31.3062 532.275 33.9186C538.006 36.4467 542.43 40.1125 545.548 44.9159C548.666 49.7194 550.225 55.4498 550.225 62.1071C550.225 68.6803 548.666 74.3685 545.548 79.172C542.43 83.9754 538.006 87.6833 532.275 90.2957C526.545 92.8238 519.719 94.0879 511.797 94.0879H484.873L493.974 84.8602V118.484H473.496ZM493.974 87.1356L484.873 77.4023H510.66C516.98 77.4023 521.699 76.0539 524.817 73.3573C527.935 70.6606 529.494 66.9106 529.494 62.1071C529.494 57.2194 527.935 53.4273 524.817 50.7306C521.699 48.0339 516.98 46.6856 510.66 46.6856H484.873L493.974 36.9523V87.1356Z" fill="white"/>
<path d="M548.771 118.484L588.21 30H608.435L648 118.484H626.511L594.151 40.3653H602.241L569.755 118.484H548.771ZM568.491 99.5233L573.926 83.9754H619.432L624.994 99.5233H568.491Z" fill="white"/>
<path fill-rule="evenodd" clip-rule="evenodd" d="M37 0C26.7827 0 18.5 8.28273 18.5 18.5C8.28273 18.5 0 26.7827 4.85196e-06 37L0 74L18.5 92.5H2.42598e-06L4.4911e-05 111C6.83748e-05 121.217 8.28281 129.5 18.5001 129.5C18.5 139.717 26.7827 148 37 148H74L92.5 129.5V148L111 148C121.217 148 129.5 139.717 129.5 129.5C139.717 129.5 148 121.217 148 111V74L129.5 55.5H148L148 37C148 26.7827 139.717 18.5 129.5 18.5C129.5 8.28273 121.217 0 111 0H74L55.5 18.5V0H37ZM55.5 18.5L27.75 45.9417V55.5H46.25L83.25 18.5H111H129.5L129.5 55.5L102.058 27.75H92.5V46.25L129.5 83.25V111V129.5H92.5L120.25 102.058V92.5H101.75L64.75 129.5H37H18.5001L18.5 92.5L45.9417 120.25L55.5 120.25L55.5 101.75L18.5 64.75L18.5 37L18.5 18.5H55.5ZM18.5 64.75L18.5 92.5L18.5 74L18.5 64.75Z" fill="white"/>
</svg>
